<svg width="16" height="18" viewBox="0 0 16 18" fill="none" xmlns="http://www.w3.org/2000/svg">
<path d="M13.9375 3.99999H13.625V3.37499C13.6242 2.65771 13.3766 1.96256 12.9239 1.40621C12.4711 0.849868 11.8408 0.466203 11.1386 0.319618C10.4365 0.173034 9.7053 0.272453 9.06779 0.601188C8.43028 0.929923 7.92526 1.46796 7.6375 2.12499H2.0625C1.6481 2.12499 1.25067 2.28961 0.957646 2.58263C0.66462 2.87566 0.5 3.27309 0.5 3.68749V14.3125C0.5 14.7269 0.66462 15.1243 0.957646 15.4173C1.25067 15.7104 1.6481 15.875 2.0625 15.875H2.375V16.1875C2.375 16.6019 2.53962 16.9993 2.83265 17.2923C3.12567 17.5854 3.5231 17.75 3.9375 17.75H13.9375C14.3519 17.75 14.7493 17.5854 15.0424 17.2923C15.3354 16.9993 15.5 16.6019 15.5 16.1875V5.56249C15.5 5.14809 15.3354 4.75066 15.0424 4.45763C14.7493 4.16461 14.3519 3.99999 13.9375 3.99999ZM2.0625 15.25C1.81386 15.25 1.5754 15.1512 1.39959 14.9754C1.22377 14.7996 1.125 14.5611 1.125 14.3125V3.68749C1.125 3.43885 1.22377 3.20039 1.39959 3.02458C1.5754 2.84876 1.81386 2.74999 2.0625 2.74999H7.4375C7.39753 2.95596 7.37661 3.16518 7.375 3.37499V3.99999H3.9375C3.5231 3.99999 3.12567 4.16461 2.83265 4.45763C2.53962 4.75066 2.375 5.14809 2.375 5.56249V15.25H2.0625ZM14.875 16.1875C14.875 16.4361 14.7762 16.6746 14.6004 16.8504C14.4246 17.0262 14.1861 17.125 13.9375 17.125H3.9375C3.68886 17.125 3.4504 17.0262 3.27459 16.8504C3.09877 16.6746 3 16.4361 3 16.1875V5.56249C3 5.31385 3.09877 5.07539 3.27459 4.89958C3.4504 4.72376 3.68886 4.62499 3.9375 4.62499H7.375V6.18749C7.375 6.27037 7.40792 6.34985 7.46653 6.40846C7.52513 6.46706 7.60462 6.49999 7.6875 6.49999C7.77038 6.49999 7.84987 6.46706 7.90847 6.40846C7.96708 6.34985 8 6.27037 8 6.18749V3.37499C8 2.71195 8.26339 2.07606 8.73223 1.60722C9.20107 1.13838 9.83696 0.874989 10.5 0.874989C11.163 0.874989 11.7989 1.13838 12.2678 1.60722C12.7366 2.07606 13 2.71195 13 3.37499V8.68749C13 9.10189 12.8354 9.49932 12.5424 9.79234C12.2493 10.0854 11.8519 10.25 11.4375 10.25C11.0231 10.25 10.6257 10.0854 10.3326 9.79234C10.0396 9.49932 9.875 9.10189 9.875 8.68749V3.37499C9.875 3.20923 9.94085 3.05026 10.0581 2.93305C10.1753 2.81584 10.3342 2.74999 10.5 2.74999C10.6658 2.74999 10.8247 2.81584 10.9419 2.93305C11.0592 3.05026 11.125 3.20923 11.125 3.37499V8.68749C11.125 8.77037 11.1579 8.84985 11.2165 8.90846C11.2751 8.96706 11.3546 8.99999 11.4375 8.99999C11.5204 8.99999 11.5999 8.96706 11.6585 8.90846C11.7171 8.84985 11.75 8.77037 11.75 8.68749V3.37499C11.75 3.04347 11.6183 2.72553 11.3839 2.49111C11.1495 2.25668 10.8315 2.12499 10.5 2.12499C10.1685 2.12499 9.85054 2.25668 9.61612 2.49111C9.3817 2.72553 9.25 3.04347 9.25 3.37499V8.68749C9.25 9.26765 9.48047 9.82405 9.8907 10.2343C10.3009 10.6445 10.8573 10.875 11.4375 10.875C12.0177 10.875 12.5741 10.6445 12.9843 10.2343C13.3945 9.82405 13.625 9.26765 13.625 8.68749V4.62499H13.9375C14.1861 4.62499 14.4246 4.72376 14.6004 4.89958C14.7762 5.07539 14.875 5.31385 14.875 5.56249V16.1875Z" fill="black"/>
</svg>
