<svg width="95" height="95" viewBox="0 0 95 95" fill="none" xmlns="http://www.w3.org/2000/svg">
<g filter="url(#filter0_dd_1544_5932)">
<circle cx="47.5" cy="47.5" r="37.5" fill="#CEEAFF"/>
</g>
<path fill-rule="evenodd" clip-rule="evenodd" d="M41.0625 49.583C41.0625 48.0083 41.6881 46.4981 42.8016 45.3846C43.9151 44.2711 45.4253 43.6455 47 43.6455C48.5747 43.6455 50.0849 44.2711 51.1984 45.3846C52.3119 46.4981 52.9375 48.0083 52.9375 49.583C52.9375 51.1577 52.3119 52.668 51.1984 53.7815C50.0849 54.895 48.5747 55.5205 47 55.5205C45.4253 55.5205 43.9151 54.895 42.8016 53.7815C41.6881 52.668 41.0625 51.1577 41.0625 49.583ZM47 46.0205C46.0552 46.0205 45.149 46.3958 44.4809 47.0639C43.8128 47.732 43.4375 48.6382 43.4375 49.583C43.4375 50.5278 43.8128 51.434 44.4809 52.1021C45.149 52.7702 46.0552 53.1455 47 53.1455C47.9448 53.1455 48.851 52.7702 49.5191 52.1021C50.1872 51.434 50.5625 50.5278 50.5625 49.583C50.5625 48.6382 50.1872 47.732 49.5191 47.0639C48.851 46.3958 47.9448 46.0205 47 46.0205Z" fill="black"/>
<path fill-rule="evenodd" clip-rule="evenodd" d="M44.8086 38.104C44.4151 38.1036 44.0253 38.1808 43.6617 38.3312C43.2981 38.4816 42.9677 38.7022 42.6894 38.9805C42.4111 39.2587 42.1905 39.5891 42.0401 39.9528C41.8897 40.3164 41.8125 40.7062 41.8129 41.0997C41.8126 41.6082 41.6212 42.0981 41.2766 42.472C40.9319 42.846 40.4593 43.0767 39.9525 43.1184L36.4217 43.4034C36.084 43.4306 35.7647 43.5681 35.5129 43.7947C35.2611 44.0213 35.0908 44.3245 35.0283 44.6574C34.3178 48.4097 34.2653 52.257 34.8732 56.0273L35.0268 56.9837C35.1724 57.8862 35.915 58.5749 36.827 58.6493L39.9034 58.8995C44.6267 59.2829 49.3732 59.2829 54.0964 58.8995L57.1713 58.6493C57.6147 58.6135 58.0333 58.4299 58.36 58.1278C58.6867 57.8258 58.9026 57.4229 58.9731 56.9837L59.1267 56.0273C59.7341 52.2569 59.681 48.4096 58.9699 44.6574C58.9071 44.3248 58.7367 44.022 58.485 43.7957C58.2332 43.5694 57.914 43.4321 57.5766 43.405L54.0473 43.1184C53.5405 43.0767 53.0679 42.846 52.7233 42.472C52.3786 42.0981 52.1872 41.6082 52.1869 41.0997C52.1873 40.7062 52.1101 40.3164 51.9597 39.9528C51.8093 39.5891 51.5887 39.2587 51.3104 38.9805C51.0322 38.7022 50.7018 38.4816 50.3381 38.3312C49.9745 38.1808 49.5848 38.1036 49.1913 38.104H44.8086ZM39.4474 40.7767C39.5301 39.4108 40.1309 38.1279 41.1272 37.1899C42.1235 36.2518 43.4402 35.7293 44.8086 35.729H49.1913C52.0492 35.729 54.3846 37.9615 54.5524 40.7767L57.7698 41.0379C58.6257 41.107 59.4352 41.4554 60.0737 42.0296C60.7123 42.6038 61.1444 43.3719 61.3038 44.2157C62.0653 48.2373 62.1223 52.3619 61.4716 56.4042L61.318 57.3621C61.1628 58.3257 60.689 59.2095 59.9722 59.872C59.2555 60.5345 58.3372 60.9374 57.3644 61.0164L54.2896 61.2666C49.4378 61.6598 44.5621 61.6598 39.7103 61.2666L36.6354 61.0164C35.6626 60.9374 34.7444 60.5345 34.0276 59.872C33.3109 59.2095 32.837 58.3257 32.6818 57.3621L32.5283 56.4042C31.8772 52.3623 31.9339 48.238 32.6961 44.2157C32.8556 43.372 33.2879 42.604 33.9264 42.0299C34.5649 41.4558 35.3742 41.1073 36.2301 41.0379L39.4474 40.7767Z" fill="black"/>
<defs>
<filter id="filter0_dd_1544_5932" x="0" y="0" width="95" height="95" filterUnits="userSpaceOnUse" color-interpolation-filters="sRGB">
<feFlood flood-opacity="0" result="BackgroundImageFix"/>
<feColorMatrix in="SourceAlpha" type="matrix" values="0 0 0 0 0 0 0 0 0 0 0 0 0 0 0 0 0 0 127 0" result="hardAlpha"/>
<feOffset/>
<feGaussianBlur stdDeviation="2"/>
<feComposite in2="hardAlpha" operator="out"/>
<feColorMatrix type="matrix" values="0 0 0 0 0 0 0 0 0 0 0 0 0 0 0 0 0 0 0.1 0"/>
<feBlend mode="normal" in2="BackgroundImageFix" result="effect1_dropShadow_1544_5932"/>
<feColorMatrix in="SourceAlpha" type="matrix" values="0 0 0 0 0 0 0 0 0 0 0 0 0 0 0 0 0 0 127 0" result="hardAlpha"/>
<feOffset/>
<feGaussianBlur stdDeviation="5"/>
<feComposite in2="hardAlpha" operator="out"/>
<feColorMatrix type="matrix" values="0 0 0 0 0 0 0 0 0 0 0 0 0 0 0 0 0 0 0.1 0"/>
<feBlend mode="normal" in2="effect1_dropShadow_1544_5932" result="effect2_dropShadow_1544_5932"/>
<feBlend mode="normal" in="SourceGraphic" in2="effect2_dropShadow_1544_5932" result="shape"/>
</filter>
</defs>
</svg>
