<svg width="28" height="26" viewBox="0 0 28 26" fill="none" xmlns="http://www.w3.org/2000/svg">
<path d="M14 25.4587C13.8991 25.4587 13.7982 25.4343 13.7078 25.3856C13.5683 25.3108 10.2585 23.5184 6.89558 20.6308C2.31992 16.7021 0 12.82 0 9.09277C0 4.06882 3.66275 1.78027 7.06592 1.78027C9.69033 1.78027 12.6251 3.17344 14 6.23765C15.3749 3.17344 18.3102 1.78027 20.9341 1.78027C24.3372 1.78027 28 4.06882 28 9.09277C28 12.82 25.6801 16.7021 21.1044 20.6308C17.7415 23.5184 14.4317 25.3114 14.2922 25.3856C14.2018 25.4343 14.1009 25.4587 14 25.4587ZM7.06592 2.86361C4.2245 2.86361 1.16667 4.81307 1.16667 9.09277C1.16667 16.6019 12.0598 23.1739 14 24.2844C15.9384 23.1734 26.8333 16.5965 26.8333 9.09277C26.8333 4.81307 23.7755 2.86361 20.9341 2.86361C18.3248 2.86361 15.3457 4.52219 14.5728 8.22773C14.5197 8.48232 14.2794 8.66648 14 8.66648C13.7206 8.66648 13.4802 8.48232 13.4272 8.22773C12.6542 4.52273 9.67517 2.86361 7.06592 2.86361Z" fill="white"/>
</svg>
