<svg width="22" height="22" viewBox="0 0 22 22" fill="none" xmlns="http://www.w3.org/2000/svg">
<path d="M8.9375 11.3928C8.9375 12.5299 9.86287 13.4553 11 13.4553C12.1371 13.4553 13.0625 12.5299 13.0625 11.3928C13.0625 10.2557 12.1371 9.33032 11 9.33032C9.86287 9.33032 8.9375 10.2557 8.9375 11.3928Z" fill="black"/>
<path d="M8.9375 18.6606C8.9375 19.7978 9.86287 20.7231 11 20.7231C12.1371 20.7231 13.0625 19.7978 13.0625 18.6606C13.0625 17.5235 12.1371 16.5981 11 16.5981C9.86287 16.5981 8.9375 17.5235 8.9375 18.6606Z" fill="black"/>
<path d="M8.9375 4.125C8.9375 5.26213 9.86287 6.1875 11 6.1875C12.1371 6.1875 13.0625 5.26213 13.0625 4.125C13.0625 2.98787 12.1371 2.0625 11 2.0625C9.86287 2.0625 8.9375 2.98787 8.9375 4.125Z" fill="black"/>
</svg>
