<svg width="18" height="18" viewBox="0 0 18 18" fill="none" xmlns="http://www.w3.org/2000/svg">
<path d="M1.07764 10.1471C1.35467 12.0506 2.30777 13.7907 3.76257 15.0491C5.21737 16.3075 7.0766 17 9.00014 17C10.9237 17 12.7829 16.3075 14.2377 15.0491C15.6925 13.7907 16.6456 12.0506 16.9226 10.1471M9.00128 1C8.09155 1 7.21908 1.36139 6.5758 2.00467C5.93252 2.64795 5.57113 3.52042 5.57113 4.43015V9.00368C5.57113 9.91342 5.93252 10.7859 6.5758 11.4292C7.21908 12.0724 8.09155 12.4338 9.00128 12.4338C9.91102 12.4338 10.7835 12.0724 11.4268 11.4292C12.07 10.7859 12.4314 9.91342 12.4314 9.00368V4.43015C12.4314 3.52042 12.07 2.64795 11.4268 2.00467C10.7835 1.36139 9.91102 1 9.00128 1Z" stroke="black" stroke-linecap="round" stroke-linejoin="round"/>
</svg>
