<svg width="20" height="16" viewBox="0 0 20 16" fill="none" xmlns="http://www.w3.org/2000/svg">
<path fill-rule="evenodd" clip-rule="evenodd" d="M17.9165 15.0834H2.08317C1.16275 15.0834 0.416504 14.3372 0.416504 13.4167V2.58341C0.416504 1.663 1.16275 0.916748 2.08317 0.916748H17.9165C18.8369 0.916748 19.5832 1.663 19.5832 2.58341V13.4167C19.5832 14.3372 18.8369 15.0834 17.9165 15.0834ZM18.7498 2.58341C18.7498 2.12341 18.3765 1.75008 17.9165 1.75008H2.08317C1.62317 1.75008 1.24984 2.12341 1.24984 2.58341V13.4167C1.24984 13.8767 1.62317 14.2501 2.08317 14.2501H17.9165C18.3765 14.2501 18.7498 13.8767 18.7498 13.4167V2.58341ZM17.2223 12.4647L14.5832 9.8255L13.0753 11.3334L14.4644 12.7226C14.6232 12.8813 14.6232 13.1388 14.4644 13.298C14.3053 13.4567 14.0478 13.4567 13.889 13.298L7.91651 7.3255L2.77734 12.4647C2.61859 12.6234 2.36109 12.6234 2.20192 12.4647C2.04317 12.3055 2.04317 12.048 2.20192 11.8892L7.57901 6.51216C7.59234 6.49216 7.60109 6.47008 7.61859 6.45216C7.70067 6.37008 7.80901 6.33258 7.91651 6.33508C8.02401 6.33258 8.13234 6.37008 8.21442 6.45216C8.23192 6.47008 8.24026 6.49216 8.254 6.51216L12.4998 10.758L14.2457 9.01216C14.2594 8.99258 14.2678 8.97008 14.2853 8.95216C14.3673 8.8705 14.4757 8.83258 14.5832 8.83508C14.6907 8.83258 14.799 8.8705 14.8811 8.95216C14.8986 8.97008 14.9069 8.99258 14.9207 9.01216L17.7978 11.8892C17.9565 12.048 17.9565 12.3055 17.7978 12.4647C17.6386 12.6234 17.3811 12.6234 17.2223 12.4647ZM12.0832 5.91675C11.1628 5.91675 10.4165 5.1705 10.4165 4.25008C10.4165 3.32966 11.1628 2.58341 12.0832 2.58341C13.0036 2.58341 13.7498 3.32966 13.7498 4.25008C13.7498 5.1705 13.0036 5.91675 12.0832 5.91675ZM12.0832 3.41675C11.6232 3.41675 11.2498 3.79008 11.2498 4.25008C11.2498 4.71008 11.6232 5.08341 12.0832 5.08341C12.5432 5.08341 12.9165 4.71008 12.9165 4.25008C12.9165 3.79008 12.5432 3.41675 12.0832 3.41675Z" fill="black"/>
</svg>
