<svg width="24" height="25" viewBox="0 0 24 25" fill="none" xmlns="http://www.w3.org/2000/svg">
<g clip-path="url(#clip0_118_2243)">
<path d="M13 2.5L13.018 2.501L13.034 2.502L13.117 2.507L13.128 2.509H13.139L13.177 2.518L13.229 2.526L13.245 2.532L13.256 2.533L13.285 2.544L13.337 2.558L13.356 2.567L13.371 2.571L13.399 2.585L13.439 2.602L13.46 2.614L13.482 2.624L13.505 2.639L13.536 2.656L13.57 2.68L13.588 2.691L13.601 2.703L13.625 2.72L13.663 2.754L13.685 2.771L13.693 2.781L13.707 2.793L13.743 2.834L13.769 2.861L13.775 2.87C13.895 3.017 13.971 3.192 13.993 3.383L13.994 3.395L13.996 3.436L14 3.5V9.5H19C19.1753 9.49996 19.3475 9.54598 19.4993 9.63345C19.6512 9.72092 19.7774 9.84677 19.8654 9.99839C19.9533 10.15 19.9998 10.3221 20.0003 10.4973C20.0007 10.6726 19.9551 10.8449 19.868 10.997L19.808 11.088L11.808 22.088C11.24 22.871 10 22.468 10 21.5V15.5H5.00001C4.82474 15.5 4.65254 15.454 4.50067 15.3666C4.34879 15.2791 4.22257 15.1532 4.13466 15.0016C4.04675 14.85 4.00023 14.6779 3.99976 14.5027C3.99929 14.3274 4.0449 14.1551 4.13201 14.003L4.19201 13.912L12.192 2.912L12.202 2.899L12.22 2.875L12.253 2.837L12.271 2.815L12.28 2.807L12.293 2.793L12.333 2.757L12.361 2.731L12.369 2.725C12.4862 2.62908 12.6237 2.56104 12.771 2.526L12.782 2.525L12.809 2.52L12.883 2.507L12.894 2.506L12.935 2.504L13 2.5Z" fill="#0063AC"/>
</g>
<defs>
<clipPath id="clip0_118_2243">
<rect width="24" height="24" fill="white" transform="translate(0 0.5)"/>
</clipPath>
</defs>
</svg>
