<svg width="21" height="21" viewBox="0 0 21 21" fill="none" xmlns="http://www.w3.org/2000/svg">
<path d="M8.53125 1.3125C4.55109 1.3125 1.3125 4.55109 1.3125 8.53125C1.3125 12.5114 4.55109 15.75 8.53125 15.75C12.5114 15.75 15.75 12.5114 15.75 8.53125C15.75 4.55109 12.5114 1.3125 8.53125 1.3125ZM8.53125 14.4375C5.27494 14.4375 2.625 11.7882 2.625 8.53125C2.625 5.27494 5.27494 2.625 8.53125 2.625C11.7882 2.625 14.4375 5.27494 14.4375 8.53125C14.4375 11.7882 11.7882 14.4375 8.53125 14.4375Z" fill="black"/>
<path d="M19.4953 18.5672L15.5572 14.6297C15.3006 14.3731 14.8858 14.3731 14.6292 14.6297C14.3726 14.8863 14.3726 15.301 14.6292 15.5576L18.5674 19.4951C18.6953 19.6231 18.8633 19.6874 19.0313 19.6874C19.1993 19.6874 19.3673 19.6231 19.4953 19.4951C19.7519 19.2385 19.7519 18.8238 19.4953 18.5672Z" fill="black"/>
</svg>
