<svg width="30" height="30" viewBox="0 0 25 25" fill="none" xmlns="http://www.w3.org/2000/svg">
<path d="M20.1471 8.22082L1.7991 7.41598C0.896297 7.41943 0.360456 8.4639 1.03289 9.06632L5.63925 13.7304L15.8857 11.0386L7.06611 16.908L7.49131 23.4495C7.57838 24.3148 8.63138 24.6458 9.19624 23.8898L20.7854 9.64241C21.2581 9.1287 20.8826 8.29247 20.1471 8.22082Z" fill="black"/>
<path d="M20.1471 8.22082L1.7991 7.41598C0.896297 7.41943 0.360456 8.4639 1.03289 9.06632L5.63925 13.7304L15.8857 11.0386L7.06611 16.908L7.49131 23.4495C7.57838 24.3148 8.63138 24.6458 9.19624 23.8898L20.7854 9.64241C21.2581 9.1287 20.8826 8.29247 20.1471 8.22082Z" stroke="black"/>
</svg>
