<svg width="26" height="24" viewBox="0 0 26 24" fill="none" xmlns="http://www.w3.org/2000/svg">
<g clip-path="url(#clip0_1544_5858)">
<path d="M14.0833 14H11.9167C10.1396 13.9994 8.39608 14.4471 6.8747 15.2949C5.35331 16.1427 4.1119 17.3582 3.28467 18.81C3.26142 18.5405 3.24985 18.2703 3.25 18C3.25 12.477 8.10008 8 14.0833 8V2.5L25.4583 11L14.0833 19.5V14ZM11.9167 12H16.25V15.308L22.0144 11L16.25 6.692V10H14.0833C12.8378 9.99871 11.6066 10.2458 10.4741 10.7244C9.34157 11.203 8.33443 11.9018 7.52158 12.773C8.92051 12.2612 10.4119 11.9989 11.9167 12Z" fill="white"/>
</g>
<defs>
<clipPath id="clip0_1544_5858">
<rect width="26" height="24" fill="white"/>
</clipPath>
</defs>
</svg>
