<svg width="18" height="16" viewBox="0 0 18 16" fill="none" xmlns="http://www.w3.org/2000/svg">
<path d="M6.36189 5.15818C6.36189 5.15818 3.20189 5.50818 1.09389 5.74218C0.90389 5.76518 0.73589 5.89218 0.67289 6.08518C0.60989 6.27818 0.67289 6.47918 0.81289 6.60618C2.37889 8.03518 4.73189 10.1752 4.73189 10.1752C4.72989 10.1752 4.08589 13.2882 3.65789 15.3652C3.62189 15.5532 3.68989 15.7522 3.85389 15.8712C4.01689 15.9902 4.22689 15.9922 4.39189 15.8992C6.23589 14.8512 8.99789 13.2752 8.99789 13.2752C8.99789 13.2752 11.7609 14.8512 13.6019 15.9002C13.7699 15.9922 13.9799 15.9902 14.1429 15.8712C14.3069 15.7522 14.3749 15.5532 14.3379 15.3662C13.9099 13.2882 13.2669 10.1752 13.2669 10.1752C13.2669 10.1752 15.6199 8.03518 17.1859 6.60918C17.3259 6.47818 17.3879 6.27718 17.3259 6.08518C17.2639 5.89318 17.0959 5.76618 16.9059 5.74418C14.7979 5.50818 11.6369 5.15818 11.6369 5.15818C11.6369 5.15818 10.3269 2.26018 9.45389 0.32818C9.37189 0.15518 9.19989 0.0341797 8.99789 0.0341797C8.79589 0.0341797 8.62289 0.15618 8.54489 0.32818C7.67089 2.26018 6.36189 5.15818 6.36189 5.15818Z" fill="black"/>
</svg>
